<svg xmlns="http://www.w3.org/2000/svg" xmlns:xlink="http://www.w3.org/1999/xlink" contentStyleType="text/css" data-diagram-type="CLASS" height="949px" preserveAspectRatio="none" style="width:587px;height:949px;background:#FFFFFF;" version="1.1" viewBox="0 0 587 949" width="587px" zoomAndPan="magnify"><defs/><g><!--cluster pharmacie--><g class="cluster" data-entity="pharmacie" data-source-line="4" data-uid="ent0004" id="cluster_pharmacie"><path d="M8.5,6 L84.5791,6 A3.75,3.75 0 0 1 87.0791,8.5 L94.0791,28.4883 L577.5,28.4883 A2.5,2.5 0 0 1 580,30.9883 L580,940.22 A2.5,2.5 0 0 1 577.5,942.72 L8.5,942.72 A2.5,2.5 0 0 1 6,940.22 L6,8.5 A2.5,2.5 0 0 1 8.5,6" fill="none" style="stroke:#000000;stroke-width:1.5;"/><line style="stroke:#000000;stroke-width:1.5;" x1="6" x2="94.0791" y1="28.4883" y2="28.4883"/><text fill="#000000" font-family="sans-serif" font-size="14" font-weight="bold" lengthAdjust="spacing" textLength="75.0791" x="10" y="21.5352">pharmacie</text></g><!--cluster entity--><g class="cluster" data-entity="entity" data-source-line="2" data-uid="ent0002" id="cluster_entity"><path d="M32.5,49 L74.96,49 A3.75,3.75 0 0 1 77.46,51.5 L84.46,71.4883 L553.5,71.4883 A2.5,2.5 0 0 1 556,73.9883 L556,916.22 A2.5,2.5 0 0 1 553.5,918.72 L32.5,918.72 A2.5,2.5 0 0 1 30,916.22 L30,51.5 A2.5,2.5 0 0 1 32.5,49" fill="none" style="stroke:#000000;stroke-width:1.5;"/><line style="stroke:#000000;stroke-width:1.5;" x1="30" x2="84.46" y1="71.4883" y2="71.4883"/><text fill="#000000" font-family="sans-serif" font-size="14" font-weight="bold" lengthAdjust="spacing" textLength="41.46" x="34" y="64.5352">entity</text></g><!--class Categorie--><g class="entity" data-entity="Categorie" data-source-line="4" data-uid="ent0003" id="entity_Categorie"><rect fill="#F1F1F1" height="97.4648" rx="2.5" ry="2.5" style="stroke:#181818;stroke-width:0.5;" width="146.4766" x="45.76" y="564.84"/><ellipse cx="82.8632" cy="580.84" fill="#ADD1B2" rx="11" ry="11" style="stroke:#181818;stroke-width:1;"/><path d="M85.8363,586.4831 Q85.2553,586.7819 84.6161,586.9313 Q83.9769,587.0807 83.2714,587.0807 Q80.7645,587.0807 79.4447,585.4289 Q78.1249,583.777 78.1249,580.6559 Q78.1249,577.5265 79.4447,575.8747 Q80.7645,574.2228 83.2714,574.2228 Q83.9769,574.2228 84.6244,574.3722 Q85.2719,574.5216 85.8363,574.8205 L85.8363,577.5431 Q85.2055,576.9621 84.612,576.6923 Q84.0184,576.4225 83.3876,576.4225 Q82.0429,576.4225 81.358,577.4892 Q80.6732,578.5558 80.6732,580.6559 Q80.6732,582.7477 81.358,583.8144 Q82.0429,584.881 83.3876,584.881 Q84.0184,584.881 84.612,584.6112 Q85.2055,584.3415 85.8363,583.7604 Z " fill="#000000"/><text fill="#000000" font-family="sans-serif" font-size="14" lengthAdjust="spacing" textLength="65.3584" x="101.775" y="586.131">Categorie</text><line style="stroke:#181818;stroke-width:0.5;" x1="46.76" x2="191.2366" y1="596.84" y2="596.84"/><ellipse cx="56.76" cy="610.5841" fill="none" rx="3" ry="3" style="stroke:#038048;stroke-width:1;"/><text fill="#000000" font-family="sans-serif" font-size="14" lengthAdjust="spacing" textLength="82.7285" x="65.76" y="614.3752">Long id &#171;id&#187;</text><ellipse cx="56.76" cy="627.0724" fill="none" rx="3" ry="3" style="stroke:#038048;stroke-width:1;"/><text fill="#000000" font-family="sans-serif" font-size="14" lengthAdjust="spacing" textLength="84.998" x="65.76" y="630.8634">String libelle</text><ellipse cx="56.76" cy="643.5607" fill="none" rx="3" ry="3" style="stroke:#038048;stroke-width:1;"/><text fill="#000000" font-family="sans-serif" font-size="14" lengthAdjust="spacing" textLength="120.4766" x="65.76" y="647.3517">String description</text><line style="stroke:#181818;stroke-width:0.5;" x1="46.76" x2="191.2366" y1="654.3048" y2="654.3048"/></g><!--class Medicament--><g class="entity" data-entity="Medicament" data-source-line="10" data-uid="ent0005" id="entity_Medicament"><rect fill="#F1F1F1" height="163.418" rx="2.5" ry="2.5" style="stroke:#181818;stroke-width:0.5;" width="212.4365" x="148.78" y="739.3"/><ellipse cx="209.5412" cy="755.3" fill="#ADD1B2" rx="11" ry="11" style="stroke:#181818;stroke-width:1;"/><path d="M212.5144,760.9431 Q211.9333,761.2419 211.2942,761.3913 Q210.655,761.5407 209.9494,761.5407 Q207.4426,761.5407 206.1228,759.8889 Q204.8029,758.237 204.8029,755.1159 Q204.8029,751.9865 206.1228,750.3347 Q207.4426,748.6828 209.9494,748.6828 Q210.655,748.6828 211.3025,748.8322 Q211.9499,748.9816 212.5144,749.2805 L212.5144,752.0031 Q211.8835,751.4221 211.29,751.1523 Q210.6965,750.8825 210.0656,750.8825 Q208.7209,750.8825 208.0361,751.9492 Q207.3513,753.0158 207.3513,755.1159 Q207.3513,757.2077 208.0361,758.2744 Q208.7209,759.341 210.0656,759.341 Q210.6965,759.341 211.29,759.0712 Q211.8835,758.8015 212.5144,758.2204 Z " fill="#000000"/><text fill="#000000" font-family="sans-serif" font-size="14" lengthAdjust="spacing" textLength="82.4141" x="230.0412" y="760.591">Medicament</text><line style="stroke:#181818;stroke-width:0.5;" x1="149.78" x2="360.2165" y1="771.3" y2="771.3"/><ellipse cx="159.78" cy="785.0441" fill="none" rx="3" ry="3" style="stroke:#038048;stroke-width:1;"/><text fill="#000000" font-family="sans-serif" font-size="14" lengthAdjust="spacing" textLength="82.7285" x="168.78" y="788.8352">Long id &#171;id&#187;</text><ellipse cx="159.78" cy="801.5324" fill="none" rx="3" ry="3" style="stroke:#038048;stroke-width:1;"/><text fill="#000000" font-family="sans-serif" font-size="14" lengthAdjust="spacing" textLength="106.7158" x="168.78" y="805.3234">String nom &#171;id&#187;</text><ellipse cx="159.78" cy="818.0207" fill="none" rx="3" ry="3" style="stroke:#038048;stroke-width:1;"/><text fill="#000000" font-family="sans-serif" font-size="14" lengthAdjust="spacing" textLength="106.7842" x="168.78" y="821.8117">BigDecimal prix</text><ellipse cx="159.78" cy="834.509" fill="none" rx="3" ry="3" style="stroke:#038048;stroke-width:1;"/><text fill="#000000" font-family="sans-serif" font-size="14" lengthAdjust="spacing" textLength="147.0479" x="168.78" y="838.3">Integer unitesEnStock</text><ellipse cx="159.78" cy="850.9973" fill="none" rx="3" ry="3" style="stroke:#038048;stroke-width:1;"/><text fill="#000000" font-family="sans-serif" font-size="14" lengthAdjust="spacing" textLength="186.4365" x="168.78" y="854.7883">Integer unitesCommandees</text><ellipse cx="159.78" cy="867.4855" fill="none" rx="3" ry="3" style="stroke:#038048;stroke-width:1;"/><text fill="#000000" font-family="sans-serif" font-size="14" lengthAdjust="spacing" textLength="104.2275" x="168.78" y="871.2766">String urlImage</text><ellipse cx="159.78" cy="883.9738" fill="none" rx="3" ry="3" style="stroke:#038048;stroke-width:1;"/><text fill="#000000" font-family="sans-serif" font-size="14" lengthAdjust="spacing" textLength="141.4834" x="168.78" y="887.7648">Boolean indisponible</text><line style="stroke:#181818;stroke-width:0.5;" x1="149.78" x2="360.2165" y1="894.718" y2="894.718"/></g><!--class Dispensaire--><g class="entity" data-entity="Dispensaire" data-source-line="20" data-uid="ent0006" id="entity_Dispensaire"><rect fill="#F1F1F1" height="163.418" rx="2.5" ry="2.5" style="stroke:#181818;stroke-width:0.5;" width="184.9355" x="144.53" y="84"/><ellipse cx="193.0412" cy="100" fill="#ADD1B2" rx="11" ry="11" style="stroke:#181818;stroke-width:1;"/><path d="M196.0144,105.6431 Q195.4333,105.9419 194.7942,106.0913 Q194.155,106.2407 193.4494,106.2407 Q190.9426,106.2407 189.6228,104.5889 Q188.3029,102.937 188.3029,99.8159 Q188.3029,96.6865 189.6228,95.0347 Q190.9426,93.3828 193.4494,93.3828 Q194.155,93.3828 194.8025,93.5322 Q195.4499,93.6816 196.0144,93.9805 L196.0144,96.7031 Q195.3835,96.1221 194.79,95.8523 Q194.1965,95.5825 193.5656,95.5825 Q192.2209,95.5825 191.5361,96.6492 Q190.8513,97.7158 190.8513,99.8159 Q190.8513,101.9077 191.5361,102.9744 Q192.2209,104.041 193.5656,104.041 Q194.1965,104.041 194.79,103.7712 Q195.3835,103.5015 196.0144,102.9204 Z " fill="#000000"/><text fill="#000000" font-family="sans-serif" font-size="14" lengthAdjust="spacing" textLength="79.4131" x="213.5412" y="105.291">Dispensaire</text><line style="stroke:#181818;stroke-width:0.5;" x1="145.53" x2="328.4655" y1="116" y2="116"/><ellipse cx="155.53" cy="129.7441" fill="none" rx="3" ry="3" style="stroke:#038048;stroke-width:1;"/><text fill="#000000" font-family="sans-serif" font-size="14" lengthAdjust="spacing" textLength="108.7393" x="164.53" y="133.5352">String code &#171;id&#187;</text><ellipse cx="155.53" cy="146.2324" fill="none" rx="3" ry="3" style="stroke:#038048;stroke-width:1;"/><text fill="#000000" font-family="sans-serif" font-size="14" lengthAdjust="spacing" textLength="74.7578" x="164.53" y="150.0234">String nom</text><ellipse cx="155.53" cy="162.7207" fill="none" rx="3" ry="3" style="stroke:#038048;stroke-width:1;"/><text fill="#000000" font-family="sans-serif" font-size="14" lengthAdjust="spacing" textLength="94.2334" x="164.53" y="166.5117">String contact</text><ellipse cx="155.53" cy="179.209" fill="none" rx="3" ry="3" style="stroke:#038048;stroke-width:1;"/><text fill="#000000" font-family="sans-serif" font-size="14" lengthAdjust="spacing" textLength="100.5771" x="164.53" y="183">String fonction</text><ellipse cx="155.53" cy="195.6973" fill="none" rx="3" ry="3" style="stroke:#038048;stroke-width:1;"/><text fill="#000000" font-family="sans-serif" font-size="14" lengthAdjust="spacing" textLength="111.8701" x="164.53" y="199.4883">String telephone</text><ellipse cx="155.53" cy="212.1855" fill="none" rx="3" ry="3" style="stroke:#038048;stroke-width:1;"/><text fill="#000000" font-family="sans-serif" font-size="14" lengthAdjust="spacing" textLength="65.8643" x="164.53" y="215.9766">String fax</text><ellipse cx="155.53" cy="228.6738" fill="none" rx="3" ry="3" style="stroke:#038048;stroke-width:1;"/><text fill="#000000" font-family="sans-serif" font-size="14" lengthAdjust="spacing" textLength="158.9355" x="164.53" y="232.4648">AdressePostale adresse</text><line style="stroke:#181818;stroke-width:0.5;" x1="145.53" x2="328.4655" y1="239.418" y2="239.418"/></g><!--class AdressePostale--><g class="entity" data-entity="AdressePostale" data-source-line="30" data-uid="ent0007" id="entity_AdressePostale"><rect fill="#F1F1F1" height="97.4648" rx="2.5" ry="2.5" style="stroke:#181818;stroke-width:0.5;" width="143.2705" x="227.36" y="564.84"/><ellipse cx="246.3691" cy="580.84" fill="#ADD1B2" rx="11" ry="11" style="stroke:#181818;stroke-width:1;"/><path d="M249.3423,586.4831 Q248.7612,586.7819 248.1221,586.9313 Q247.4829,587.0807 246.7773,587.0807 Q244.2705,587.0807 242.9507,585.4289 Q241.6308,583.777 241.6308,580.6559 Q241.6308,577.5265 242.9507,575.8747 Q244.2705,574.2228 246.7773,574.2228 Q247.4829,574.2228 248.1304,574.3722 Q248.7778,574.5216 249.3423,574.8205 L249.3423,577.5431 Q248.7114,576.9621 248.1179,576.6923 Q247.5244,576.4225 246.8935,576.4225 Q245.5488,576.4225 244.864,577.4892 Q244.1792,578.5558 244.1792,580.6559 Q244.1792,582.7477 244.864,583.8144 Q245.5488,584.881 246.8935,584.881 Q247.5244,584.881 248.1179,584.6112 Q248.7114,584.3415 249.3423,583.7604 Z " fill="#000000"/><text fill="#000000" font-family="sans-serif" font-size="14" lengthAdjust="spacing" textLength="102.3613" x="261.26" y="586.131">AdressePostale</text><line style="stroke:#181818;stroke-width:0.5;" x1="228.36" x2="369.6305" y1="596.84" y2="596.84"/><ellipse cx="238.36" cy="610.5841" fill="none" rx="3" ry="3" style="stroke:#038048;stroke-width:1;"/><text fill="#000000" font-family="sans-serif" font-size="14" lengthAdjust="spacing" textLength="66.6162" x="247.36" y="614.3752">String rue</text><ellipse cx="238.36" cy="627.0724" fill="none" rx="3" ry="3" style="stroke:#038048;stroke-width:1;"/><text fill="#000000" font-family="sans-serif" font-size="14" lengthAdjust="spacing" textLength="117.2705" x="247.36" y="630.8634">String codePostal</text><ellipse cx="238.36" cy="643.5607" fill="none" rx="3" ry="3" style="stroke:#038048;stroke-width:1;"/><text fill="#000000" font-family="sans-serif" font-size="14" lengthAdjust="spacing" textLength="71.5859" x="247.36" y="647.3517">String ville</text><line style="stroke:#181818;stroke-width:0.5;" x1="228.36" x2="369.6305" y1="654.3048" y2="654.3048"/></g><!--class Commande--><g class="entity" data-entity="Commande" data-source-line="36" data-uid="ent0008" id="entity_Commande"><rect fill="#F1F1F1" height="163.418" rx="2.5" ry="2.5" style="stroke:#181818;stroke-width:0.5;" width="245.625" x="294.19" y="324.42"/><ellipse cx="374.0235" cy="340.42" fill="#ADD1B2" rx="11" ry="11" style="stroke:#181818;stroke-width:1;"/><path d="M376.9966,346.0631 Q376.4156,346.3619 375.7764,346.5113 Q375.1373,346.6607 374.4317,346.6607 Q371.9249,346.6607 370.605,345.0089 Q369.2852,343.357 369.2852,340.2359 Q369.2852,337.1065 370.605,335.4547 Q371.9249,333.8028 374.4317,333.8028 Q375.1373,333.8028 375.7847,333.9522 Q376.4322,334.1016 376.9966,334.4005 L376.9966,337.1231 Q376.3658,336.5421 375.7723,336.2723 Q375.1788,336.0025 374.5479,336.0025 Q373.2032,336.0025 372.5184,337.0692 Q371.8336,338.1358 371.8336,340.2359 Q371.8336,342.3277 372.5184,343.3944 Q373.2032,344.461 374.5479,344.461 Q375.1788,344.461 375.7723,344.1912 Q376.3658,343.9215 376.9966,343.3404 Z " fill="#000000"/><text fill="#000000" font-family="sans-serif" font-size="14" lengthAdjust="spacing" textLength="77.458" x="394.5235" y="345.711">Commande</text><line style="stroke:#181818;stroke-width:0.5;" x1="295.19" x2="538.815" y1="356.42" y2="356.42"/><ellipse cx="305.19" cy="370.1641" fill="none" rx="3" ry="3" style="stroke:#038048;stroke-width:1;"/><text fill="#000000" font-family="sans-serif" font-size="14" lengthAdjust="spacing" textLength="136.9785" x="314.19" y="373.9552">Integer numero &#171;id&#187;</text><ellipse cx="305.19" cy="386.6524" fill="none" rx="3" ry="3" style="stroke:#038048;stroke-width:1;"/><text fill="#000000" font-family="sans-serif" font-size="14" lengthAdjust="spacing" textLength="120.4424" x="314.19" y="390.4434">LocalDate saisiele</text><ellipse cx="305.19" cy="403.1407" fill="none" rx="3" ry="3" style="stroke:#038048;stroke-width:1;"/><text fill="#000000" font-family="sans-serif" font-size="14" lengthAdjust="spacing" textLength="137.792" x="314.19" y="406.9317">LocalDate envoyeele</text><ellipse cx="305.19" cy="419.629" fill="none" rx="3" ry="3" style="stroke:#038048;stroke-width:1;"/><text fill="#000000" font-family="sans-serif" font-size="14" lengthAdjust="spacing" textLength="107.9873" x="314.19" y="423.42">BigDecimal port</text><ellipse cx="305.19" cy="436.1173" fill="none" rx="3" ry="3" style="stroke:#038048;stroke-width:1;"/><text fill="#000000" font-family="sans-serif" font-size="14" lengthAdjust="spacing" textLength="124.3936" x="314.19" y="439.9083">String destinataire</text><ellipse cx="305.19" cy="452.6055" fill="none" rx="3" ry="3" style="stroke:#038048;stroke-width:1;"/><text fill="#000000" font-family="sans-serif" font-size="14" lengthAdjust="spacing" textLength="219.625" x="314.19" y="456.3966">AdressePostale adresseLivraison</text><ellipse cx="305.19" cy="469.0938" fill="none" rx="3" ry="3" style="stroke:#038048;stroke-width:1;"/><text fill="#000000" font-family="sans-serif" font-size="14" lengthAdjust="spacing" textLength="125.1934" x="314.19" y="472.8848">BigDecimal remise</text><line style="stroke:#181818;stroke-width:0.5;" x1="295.19" x2="538.815" y1="479.838" y2="479.838"/></g><!--class Ligne--><g class="entity" data-entity="Ligne" data-source-line="46" data-uid="ent0009" id="entity_Ligne"><rect fill="#F1F1F1" height="80.9766" rx="2.5" ry="2.5" style="stroke:#181818;stroke-width:0.5;" width="134.6846" x="405.66" y="573.08"/><ellipse cx="450.3875" cy="589.08" fill="#ADD1B2" rx="11" ry="11" style="stroke:#181818;stroke-width:1;"/><path d="M453.3607,594.7231 Q452.7796,595.0219 452.1405,595.1713 Q451.5013,595.3207 450.7957,595.3207 Q448.2889,595.3207 446.9691,593.6689 Q445.6493,592.017 445.6493,588.8959 Q445.6493,585.7665 446.9691,584.1147 Q448.2889,582.4628 450.7957,582.4628 Q451.5013,582.4628 452.1488,582.6122 Q452.7962,582.7616 453.3607,583.0605 L453.3607,585.7831 Q452.7298,585.2021 452.1363,584.9323 Q451.5428,584.6625 450.912,584.6625 Q449.5672,584.6625 448.8824,585.7292 Q448.1976,586.7958 448.1976,588.8959 Q448.1976,590.9877 448.8824,592.0544 Q449.5672,593.121 450.912,593.121 Q451.5428,593.121 452.1363,592.8512 Q452.7298,592.5815 453.3607,592.0004 Z " fill="#000000"/><text fill="#000000" font-family="sans-serif" font-size="14" lengthAdjust="spacing" textLength="36.7295" x="470.8875" y="594.371">Ligne</text><line style="stroke:#181818;stroke-width:0.5;" x1="406.66" x2="539.3446" y1="605.08" y2="605.08"/><ellipse cx="416.66" cy="618.8241" fill="none" rx="3" ry="3" style="stroke:#038048;stroke-width:1;"/><text fill="#000000" font-family="sans-serif" font-size="14" lengthAdjust="spacing" textLength="82.7285" x="425.66" y="622.6152">Long id &#171;id&#187;</text><ellipse cx="416.66" cy="635.3124" fill="none" rx="3" ry="3" style="stroke:#038048;stroke-width:1;"/><text fill="#000000" font-family="sans-serif" font-size="14" lengthAdjust="spacing" textLength="108.6846" x="425.66" y="639.1034">Integer quantite</text><line style="stroke:#181818;stroke-width:0.5;" x1="406.66" x2="539.3446" y1="646.0566" y2="646.0566"/></g><!--link Categorie to Medicament--><g class="link" data-entity-1="Categorie" data-entity-2="Medicament" data-source-line="52" data-uid="lnk10" id="link_Categorie_Medicament"><path codeLine="52" d="M150.89,662.74 C165.96,685.51 184.37,713.32 201.49,739.18" fill="none" id="Categorie-Medicament" style="stroke:#181818;stroke-width:1;"/><polygon fill="#000000" points="181.1001,696.786,183.6422,705.9505,188.5434,702.7061,181.1001,696.786" style="stroke:#000000;stroke-width:1;"/><text fill="#000000" font-family="sans-serif" font-size="13" lengthAdjust="spacing" textLength="76.1274" x="192.86" y="705.8684">appartient &#224;</text><text fill="#000000" font-family="sans-serif" font-size="13" lengthAdjust="spacing" textLength="8.2202" x="146.6527" y="682.9439">1</text><text fill="#000000" font-family="sans-serif" font-size="13" lengthAdjust="spacing" textLength="22.7119" x="173.576" y="728.5277">0..*</text></g><!--link Dispensaire to Commande--><g class="link" data-entity-1="Dispensaire" data-entity-2="Commande" data-source-line="54" data-uid="lnk11" id="link_Dispensaire_Commande"><path codeLine="54" d="M298.19,247.76 C316.84,272.46 337.34,299.61 355.98,324.3" fill="none" id="Dispensaire-Commande" style="stroke:#181818;stroke-width:1;"/><polygon fill="#000000" points="340.4128,290.0656,337.308,281.0761,332.6171,284.6179,340.4128,290.0656" style="stroke:#000000;stroke-width:1;"/><text fill="#000000" font-family="sans-serif" font-size="13" lengthAdjust="spacing" textLength="35.8579" x="346.4" y="290.9884">passe</text><text fill="#000000" font-family="sans-serif" font-size="13" lengthAdjust="spacing" textLength="8.2202" x="295.1144" y="268.0375">1</text><text fill="#000000" font-family="sans-serif" font-size="13" lengthAdjust="spacing" textLength="22.7119" x="327.3732" y="313.6477">0..*</text></g><!--reverse link Dispensaire to AdressePostale--><g class="link" data-entity-1="Dispensaire" data-entity-2="AdressePostale" data-source-line="56" data-uid="lnk12" id="link_Dispensaire_AdressePostale"><path codeLine="56" d="M194.9333,258.9344 C169.4433,325.4044 149.92,409.76 181,487.84 C192.69,517.2 214.93,543.63 236.98,564.52" fill="none" id="Dispensaire-backto-AdressePostale" style="stroke:#181818;stroke-width:1;"/><polygon fill="#181818" points="199.23,247.73,193.3469,251.9,194.9333,258.9344,200.8165,254.7644,199.23,247.73" style="stroke:#181818;stroke-width:1;"/><polygon fill="#000000" points="186.6815,411.2386,188.3601,401.8773,182.5371,402.6785,186.6815,411.2386" style="stroke:#000000;stroke-width:1;"/><text fill="#000000" font-family="sans-serif" font-size="13" lengthAdjust="spacing" textLength="81.104" x="195" y="411.1984">est localis&#233; &#224;</text><text fill="#000000" font-family="sans-serif" font-size="13" lengthAdjust="spacing" textLength="8.2202" x="187.65" y="268.0049">1</text><text fill="#000000" font-family="sans-serif" font-size="13" lengthAdjust="spacing" textLength="8.2202" x="219.7121" y="554.1575">1</text></g><!--reverse link Commande to AdressePostale--><g class="link" data-entity-1="Commande" data-entity-2="AdressePostale" data-source-line="58" data-uid="lnk13" id="link_Commande_AdressePostale"><path codeLine="58" d="M364.3859,498.7272 C349.5759,524.5272 339.64,541.81 326.61,564.49" fill="none" id="Commande-backto-AdressePostale" style="stroke:#181818;stroke-width:1;"/><polygon fill="#181818" points="370.36,488.32,363.9039,491.5323,364.3859,498.7272,370.842,495.515,370.36,488.32" style="stroke:#181818;stroke-width:1;"/><polygon fill="#000000" points="353.4495,530.8309,360.5033,524.4516,355.4064,521.5238,353.4495,530.8309" style="stroke:#000000;stroke-width:1;"/><text fill="#000000" font-family="sans-serif" font-size="13" lengthAdjust="spacing" textLength="64.4731" x="364.94" y="531.4084">livraison &#224;</text><text fill="#000000" font-family="sans-serif" font-size="13" lengthAdjust="spacing" textLength="8.2202" x="358.1753" y="508.3288">1</text><text fill="#000000" font-family="sans-serif" font-size="13" lengthAdjust="spacing" textLength="8.2202" x="321.9463" y="554.1233">1</text></g><!--reverse link Commande to Ligne--><g class="link" data-entity-1="Commande" data-entity-2="Ligne" data-source-line="60" data-uid="lnk14" id="link_Commande_Ligne"><path codeLine="60" d="M442.2864,499.8974 C450.2064,528.9474 455.62,548.83 462.16,572.82" fill="none" id="Commande-backto-Ligne" style="stroke:#181818;stroke-width:1;"/><polygon fill="#181818" points="439.13,488.32,436.8491,495.1609,442.2864,499.8974,444.5673,493.0566,439.13,488.32" style="stroke:#181818;stroke-width:1;"/><polygon fill="#000000" points="457.9747,531.3193,458.4319,521.8198,452.7609,523.3653,457.9747,531.3193" style="stroke:#000000;stroke-width:1;"/><text fill="#000000" font-family="sans-serif" font-size="13" lengthAdjust="spacing" textLength="83.5986" x="465.66" y="531.4084">compos&#233;e de</text><text fill="#000000" font-family="sans-serif" font-size="13" lengthAdjust="spacing" textLength="8.2202" x="432.6403" y="508.3288">1</text><text fill="#000000" font-family="sans-serif" font-size="13" lengthAdjust="spacing" textLength="22.7119" x="436.6013" y="562.423">0..*</text></g><!--link Ligne to Medicament--><g class="link" data-entity-1="Ligne" data-entity-2="Medicament" data-source-line="62" data-uid="lnk15" id="link_Ligne_Medicament"><path codeLine="62" d="M430.71,654.42 C405.2,678.46 371.78,709.96 340.93,739.03" fill="none" id="Ligne-Medicament" style="stroke:#181818;stroke-width:1;"/><polygon fill="#000000" points="391.3012,704.3845,399.8995,700.3198,395.8682,696.0422,391.3012,704.3845" style="stroke:#000000;stroke-width:1;"/><text fill="#000000" font-family="sans-serif" font-size="13" lengthAdjust="spacing" textLength="57.2432" x="403.94" y="705.8684">concerne</text><text fill="#000000" font-family="sans-serif" font-size="13" lengthAdjust="spacing" textLength="6.2651" x="417.5127" y="674.7192">*</text><text fill="#000000" font-family="sans-serif" font-size="13" lengthAdjust="spacing" textLength="8.2202" x="340.2369" y="728.643">1</text></g><!--SRC=[XPDBRXin38RtFWKncm8kOZHRmp3Gnbq4S86YEG6ZOIT494gLD4Q387VfjkV8nIfvF2_5SRqnXe-VuaVIeNh4Xg1o3-WDAgOLIUJuLC7pOW6WD8O0DnYfiPuf6I7zFiBUIWDSmsR3zNPxCjv5pyci-Pwqfhcnfg0ykyXMakDbrFv6DIiqgMedVbPxr15h2iSNRdQasA06v_btRxwLz6Roq0f72b_bBbhrUDvvOur1gOb2KQpr-jOaF4CfQpMX04lDmLdX-sERasvsoKuIa7tFQbHJjgPtcteJAn5LBAm_hQWJmQavaYRtO8NAS1neVAuzXK3VROYe2R3xdB-zY7cU3z2tnKHpErtit7vWNLBf0G-QFNzf3NaxtwAzLQXtQUCWOGnCmoQD3fA3VQBHCrq1w-ERpOii6FDC5fTexFdWKyKJtfcg9yD7NDEkzjp8VowYx_DNY_cg1YmVu0TfpAFCApUULtLTmTKLL9zMgsKrFOqre7Fe8-UFrp-moIhJPPjd3i3NuD9J2RRdufSv8VqNEDQGY87Ej3cy_itbZkc3wCLStLEyaDSzikEtJejad4s5A8sgou2JhrfsJLqNBD9rAFAIeryM_m00]--></g></svg>
